<svg width="29" height="25" viewBox="0 0 29 25" fill="none" xmlns="http://www.w3.org/2000/svg">
<path d="M20.2814 10.9375C20.2814 10.3242 20.0717 9.71045 19.6519 9.24023L11.9788 0.700195C11.5949 0.233691 11.0421 0 10.4543 0C9.94096 0 9.39256 0.233691 8.96701 0.700684L1.2961 9.23828C0.876385 9.71191 0.666504 10.3223 0.666504 10.8936C0.666504 11.5068 0.876428 12.1226 1.29606 12.5928L8.96916 21.1328C9.39142 21.5997 9.94267 21.8335 10.4937 21.8335C11.0447 21.8335 11.5962 21.5999 12.0182 21.1328L19.6913 12.5928C20.1103 12.1631 20.2814 11.5527 20.2814 10.9375ZM4.8782 12.1094C4.2969 12.1094 3.86477 11.5845 3.86477 10.9814C3.86477 10.3784 4.33639 9.85352 4.8782 9.85352C5.42001 9.85352 5.93111 10.293 5.93111 10.9375C5.93111 11.582 5.46169 12.1094 4.8782 12.1094ZM10.4937 18.3594C9.91244 18.3594 9.48031 17.8345 9.48031 17.2314C9.48031 16.6284 9.95192 16.1035 10.4937 16.1035C11.0355 16.1035 11.5072 16.6284 11.5072 17.2314C11.5072 17.8345 11.0772 18.3594 10.4937 18.3594ZM10.4937 12.1094C9.91244 12.1094 9.48031 11.5845 9.48031 10.9814C9.48031 10.3784 9.95192 9.85352 10.4937 9.85352C11.0355 9.85352 11.5466 10.293 11.5466 10.9375C11.5466 11.582 11.0772 12.1094 10.4937 12.1094ZM10.4937 5.85937C9.91244 5.85937 9.48031 5.33447 9.48031 4.73145C9.48031 4.12842 9.95192 3.60352 10.4937 3.60352C11.0355 3.60352 11.5072 4.12842 11.5072 4.73145C11.5072 5.33447 11.0772 5.85937 10.4937 5.85937ZM16.1093 12.1094C15.528 12.1094 15.0958 11.5845 15.0958 10.9814C15.0958 10.3784 15.5675 9.85352 16.1093 9.85352C16.6511 9.85352 17.1227 10.3784 17.1227 10.9814C17.1227 11.5845 16.6928 12.1094 16.1093 12.1094ZM26.5989 9.375H21.3914C21.5852 9.87646 21.6811 10.4126 21.6811 10.9487C21.6811 11.9595 21.3361 12.9692 20.6444 13.7388L14.6692 20.3892V22.6533C14.7054 23.9502 15.6486 25 16.8112 25H26.5989C27.7615 25 28.6653 23.9502 28.6653 22.7002V11.7187C28.7047 10.4248 27.801 9.375 26.5989 9.375ZM21.6853 18.3594C21.104 18.3594 20.6719 17.8345 20.6719 17.2314C20.6719 16.6284 21.1435 16.1035 21.6853 16.1035C22.2271 16.1035 22.6988 16.6284 22.6988 17.2314C22.6988 17.8345 22.3039 18.3594 21.6853 18.3594Z" fill="url(#paint0_linear_247_357)"/>
<defs>
<linearGradient id="paint0_linear_247_357" x1="14.6665" y1="0" x2="14.6665" y2="25" gradientUnits="userSpaceOnUse">
<stop stop-color="#1F8EBE"/>
<stop offset="0.463542" stop-color="#440495"/>
<stop offset="0.552083" stop-color="#440495"/>
<stop offset="1" stop-color="#B102CD"/>
</linearGradient>
</defs>
</svg>
