<svg width="25" height="25" viewBox="0 0 25 25" fill="none" xmlns="http://www.w3.org/2000/svg">
<path d="M3.15174 9.73077L10.452 19.3221L6.93665 9.73077H3.15174ZM12.6667 20.8654L16.7563 9.73077H8.57717L12.6667 20.8654ZM6.97181 7.88461L9.36227 2.34615H6.29216L2.91738 7.88461H6.97181ZM14.8814 19.3221L22.1818 9.73077H18.3968L14.8814 19.3221ZM8.67091 7.88461H16.6626L14.2721 2.34615H11.0614L8.67091 7.88461ZM18.3617 7.88461H22.4161L19.0413 2.34615H15.9712L18.3617 7.88461ZM20.0139 0.875L24.5136 8.25961C24.623 8.43269 24.6738 8.63221 24.666 8.85817C24.6582 9.08413 24.5918 9.27885 24.4668 9.44231L13.2175 24.2115C13.0769 24.4038 12.8933 24.5 12.6667 24.5C12.4402 24.5 12.2566 24.4038 12.116 24.2115L0.866735 9.44231C0.741743 9.27885 0.675341 9.08413 0.667529 8.85817C0.659717 8.63221 0.710495 8.43269 0.819863 8.25961L5.31957 0.875C5.46019 0.625 5.65939 0.5 5.91719 0.5H19.4163C19.6741 0.5 19.8733 0.625 20.0139 0.875Z" fill="url(#paint0_linear_247_351)"/>
<defs>
<linearGradient id="paint0_linear_247_351" x1="-1.83325" y1="10.5" x2="0.666748" y2="17" gradientUnits="userSpaceOnUse">
<stop stop-color="#1F8EBE"/>
<stop offset="0.380208" stop-color="#440495"/>
<stop offset="0.645833" stop-color="#440495"/>
<stop offset="1" stop-color="#B102CD"/>
</linearGradient>
</defs>
</svg>
