<svg width="33" height="31" viewBox="0 0 33 31" fill="none" xmlns="http://www.w3.org/2000/svg">
<path d="M15.909 8.10236L5.66701 18.5263V29.7767C5.66701 30.068 5.76065 30.3473 5.92734 30.5533C6.09402 30.7593 6.3201 30.875 6.55583 30.875L12.7809 30.8551C13.0159 30.8536 13.2408 30.7373 13.4065 30.5315C13.5722 30.3256 13.6653 30.0471 13.6653 29.7568V23.1866C13.6653 22.8953 13.7589 22.616 13.9256 22.41C14.0923 22.204 14.3184 22.0883 14.5541 22.0883H18.1094C18.3451 22.0883 18.5712 22.204 18.7379 22.41C18.9046 22.616 18.9982 22.8953 18.9982 23.1866V29.752C18.9978 29.8965 19.0206 30.0397 19.0651 30.1733C19.1096 30.307 19.175 30.4285 19.2575 30.5308C19.3401 30.6332 19.4382 30.7144 19.5462 30.7698C19.6543 30.8252 19.7701 30.8537 19.887 30.8537L26.1099 30.875C26.3456 30.875 26.5717 30.7593 26.7384 30.5533C26.9051 30.3473 26.9987 30.068 26.9987 29.7767V18.5187L16.7589 8.10236C16.6385 7.98245 16.4886 7.91706 16.334 7.91706C16.1793 7.91706 16.0294 7.98245 15.909 8.10236ZM32.0872 15.1873L27.4431 10.4569V0.948753C27.4431 0.73028 27.3729 0.520755 27.2479 0.366272C27.1228 0.211788 26.9533 0.125 26.7765 0.125H23.6656C23.4888 0.125 23.3193 0.211788 23.1943 0.366272C23.0692 0.520755 22.999 0.73028 22.999 0.948753V5.93314L18.0255 0.876674C17.5482 0.391332 16.9493 0.12597 16.3312 0.12597C15.7131 0.12597 15.1142 0.391332 14.6369 0.876674L0.575177 15.1873C0.507675 15.2563 0.451828 15.341 0.410827 15.4366C0.369826 15.5322 0.344474 15.6369 0.33622 15.7446C0.327965 15.8524 0.336971 15.961 0.362721 16.0645C0.388472 16.1679 0.430463 16.2641 0.486295 16.3474L1.90285 18.4755C1.95853 18.5591 2.02702 18.6284 2.10439 18.6793C2.18176 18.7302 2.2665 18.7618 2.35376 18.7722C2.44101 18.7826 2.52907 18.7716 2.61289 18.7399C2.6967 18.7082 2.77464 18.6563 2.84222 18.5874L15.909 5.28787C16.0294 5.16796 16.1793 5.10257 16.334 5.10257C16.4886 5.10257 16.6385 5.16796 16.7589 5.28787L29.8263 18.5874C29.8937 18.6563 29.9715 18.7082 30.0552 18.7401C30.1389 18.7719 30.2269 18.783 30.3141 18.7728C30.4013 18.7626 30.486 18.7313 30.5634 18.6806C30.6407 18.6299 30.7093 18.5609 30.7651 18.4775L32.1816 16.3495C32.2374 16.2656 32.2792 16.169 32.3047 16.0651C32.3301 15.9612 32.3387 15.8521 32.3299 15.7441C32.3211 15.6361 32.2952 15.5314 32.2535 15.4358C32.2119 15.3402 32.1553 15.2558 32.0872 15.1873Z" fill="url(#paint0_linear_247_349)"/>
<defs>
<linearGradient id="paint0_linear_247_349" x1="0.333252" y1="5.89063" x2="6.51849" y2="30.9936" gradientUnits="userSpaceOnUse">
<stop offset="0.0989583" stop-color="#1F8EBE"/>
<stop offset="0.567608" stop-color="#440495"/>
<stop offset="0.567708" stop-color="#440495"/>
<stop offset="0.791667" stop-color="#B102CD"/>
</linearGradient>
</defs>
</svg>
