<svg width="25" height="25" viewBox="0 0 25 25" fill="none" xmlns="http://www.w3.org/2000/svg">
<path d="M16.7235 2.9C16.7235 1.568 17.7654 0.5 19.065 0.5C20.3645 0.5 21.4064 1.568 21.4064 2.9C21.4064 4.232 20.3645 5.3 19.065 5.3C17.7654 5.3 16.7235 4.232 16.7235 2.9ZM21.4064 24.5V17.3H24.3333L21.3596 8.144C21.203 7.66605 20.9042 7.25043 20.5052 6.95555C20.1062 6.66067 19.6271 6.50135 19.1352 6.5H18.9947C18.5024 6.49954 18.0225 6.65815 17.6231 6.95329C17.2238 7.24842 16.9254 7.66507 16.7703 8.144L15.7635 11.24C17.0279 11.96 17.8942 13.316 17.8942 14.9V24.5H21.4064ZM12.6259 11.9C13.5976 11.9 14.382 11.096 14.382 10.1C14.382 9.104 13.5976 8.3 12.6259 8.3C11.6542 8.3 10.8698 9.104 10.8698 10.1C10.8698 11.096 11.6542 11.9 12.6259 11.9ZM4.43081 5.3C5.73032 5.3 6.77228 4.232 6.77228 2.9C6.77228 1.568 5.73032 0.5 4.43081 0.5C3.1313 0.5 2.08935 1.568 2.08935 2.9C2.08935 4.232 3.1313 5.3 4.43081 5.3ZM6.77228 24.5V16.1H8.52837V8.9C8.52837 7.58 7.47471 6.5 6.18691 6.5H2.67472C1.38691 6.5 0.333252 7.58 0.333252 8.9V16.1H2.08935V24.5H6.77228ZM14.382 24.5V19.7H15.5528V14.9C15.5528 13.916 14.7567 13.1 13.7967 13.1H11.4552C10.4952 13.1 9.6991 13.916 9.6991 14.9V19.7H10.8698V24.5H14.382Z" fill="url(#paint0_linear_247_355)"/>
<defs>
<linearGradient id="paint0_linear_247_355" x1="12.3333" y1="0.5" x2="12.3333" y2="27.5" gradientUnits="userSpaceOnUse">
<stop stop-color="#1F8EBE"/>
<stop offset="0.390625" stop-color="#440495"/>
<stop offset="0.860393" stop-color="#B102CD"/>
<stop offset="1" stop-color="#CCCCCC"/>
</linearGradient>
</defs>
</svg>
