<svg width="24" height="25" viewBox="0 0 24 25" fill="none" xmlns="http://www.w3.org/2000/svg">
<path d="M23.9672 19.5114L22.6055 6.38C22.4352 4.74667 21.8411 3.25256 20.9323 2.17231C20.0234 1.09205 18.861 0.498234 17.6587 0.500004H6.34079C3.85486 0.500004 1.74369 3.00286 1.39391 6.38L0.0322673 19.5114C-0.0626074 20.4183 0.0529769 21.3432 0.36263 22.1549C0.672284 22.9666 1.16029 23.6239 1.75745 24.0337C2.35461 24.4434 3.03061 24.5848 3.68959 24.4377C4.34858 24.2906 4.9571 23.8626 5.42887 23.2143L8.25209 19.3571H15.7474L18.5581 23.2143C19.1577 24.0371 19.9697 24.5 20.8067 24.5C22.7555 24.5 24.242 22.1514 23.9672 19.5114ZM10.7505 10.7857H8.25209V14.2143H7.00288V10.7857H4.50445V9.07143H7.00288V5.64286H8.25209V9.07143H10.7505V10.7857ZM15.7474 9.07143C15.0603 9.07143 14.4982 8.3 14.4982 7.35715C14.4982 6.41429 15.0603 5.64286 15.7474 5.64286C16.4344 5.64286 16.9966 6.41429 16.9966 7.35715C16.9966 8.3 16.4344 9.07143 15.7474 9.07143ZM18.2458 14.2143C17.5587 14.2143 16.9966 13.4429 16.9966 12.5C16.9966 11.5571 17.5587 10.7857 18.2458 10.7857C18.9329 10.7857 19.495 11.5571 19.495 12.5C19.495 13.4429 18.9329 14.2143 18.2458 14.2143Z" fill="url(#paint0_linear_247_353)"/>
<defs>
<linearGradient id="paint0_linear_247_353" x1="4" y1="7.5" x2="16.5" y2="16.5" gradientUnits="userSpaceOnUse">
<stop stop-color="#1F8EBE"/>
<stop offset="0.411458" stop-color="#440495"/>
<stop offset="0.65625" stop-color="#440495"/>
<stop offset="1" stop-color="#B102CD"/>
</linearGradient>
</defs>
</svg>
