<svg width="281" height="227" viewBox="0 0 281 227" fill="none" xmlns="http://www.w3.org/2000/svg">
<path d="M7.58454 0L263.541 115.453L259.729 168.482L4.11279 49.6256L7.58454 0Z" fill="url(#paint0_linear_247_383)" fill-opacity="0.3"/>
<path d="M7.59278 12.0496L263.549 127.502L259.737 168.55L4.12103 49.6942L7.59278 12.0496Z" fill="url(#paint1_linear_247_383)" fill-opacity="0.2"/>
<path d="M74.3801 129.037L100.342 138.36L100.437 94.6181L74.3801 82.3585V129.037Z" fill="url(#paint2_linear_247_383)" fill-opacity="0.8"/>
<path d="M100.437 140.832L59.8651 165.011V75.4941L100.437 94.6228V140.832Z" fill="url(#paint3_linear_247_383)" fill-opacity="0.8"/>
<g style="mix-blend-mode:lighten">
<ellipse cx="111.039" cy="173.37" rx="111.039" ry="53.6296" fill="url(#paint4_radial_247_383)" fill-opacity="0.6"/>
</g>
<path d="M74.3817 129.04L59.8651 165.011V75.4941L74.3817 82.3557V129.04Z" fill="url(#paint5_linear_247_383)"/>
<path d="M94.6967 54.7399L100.096 25.8682L152.464 25.9874L116.468 56.6991L94.6967 54.7399Z" fill="url(#paint6_linear_247_383)" fill-opacity="0.8"/>
<g opacity="0.7">
<path d="M116.467 56.6985L94.6956 54.7402L74.3805 82.3547V129.038L97.3709 128.591L116.281 101.873L116.467 56.6985Z" fill="url(#paint7_linear_247_383)"/>
<path d="M116.467 56.6985L94.6956 54.7402L74.3805 82.3547V129.038L97.3709 128.591L116.281 101.873L116.467 56.6985Z" fill="url(#paint8_radial_247_383)"/>
<path d="M116.467 56.6985L94.6956 54.7402L74.3805 82.3547V129.038L97.3709 128.591L116.281 101.873L116.467 56.6985Z" fill="url(#paint9_linear_247_383)"/>
</g>
<path d="M94.6952 54.7402L120.655 64.0637L100.439 94.6222L74.3839 82.3563L94.6952 54.7402Z" fill="url(#paint10_linear_247_383)" fill-opacity="0.8"/>
<path d="M116.23 101.893L142.392 113.878L122.079 139.527L97.3712 128.589L116.23 101.893Z" fill="url(#paint11_linear_247_383)" fill-opacity="0.8"/>
<path d="M94.6953 54.7408L120.655 64.0643L142.428 66.0238L116.466 56.6993L94.6953 54.7408Z" fill="url(#paint12_linear_247_383)" fill-opacity="0.8"/>
<path d="M74.374 129.034L100.441 140.84L122.108 139.542L97.3735 128.591L74.374 129.034Z" fill="url(#paint13_linear_247_383)"/>
<path d="M120.723 64.1936L100.096 25.8682L59.8651 75.4938L100.441 94.6182L120.723 64.1936Z" fill="url(#paint14_linear_247_383)" fill-opacity="0.9"/>
<path d="M142.379 113.887L152.36 118.55V25.8003L142.404 66.0317L142.379 113.887Z" fill="url(#paint15_linear_247_383)" fill-opacity="0.9"/>
<path d="M100.437 140.836L59.8651 165.011L112.418 172.635L122.067 139.526L100.437 140.836Z" fill="url(#paint16_linear_247_383)" fill-opacity="0.9"/>
<path d="M142.387 113.879L152.355 118.55L112.417 172.634L122.067 139.525L142.387 113.879Z" fill="url(#paint17_linear_247_383)"/>
<path d="M120.723 64.1936L100.096 25.8682H152.377L142.404 66.0316L120.723 64.1936Z" fill="url(#paint18_linear_247_383)"/>
<path d="M120.723 64.1936L100.096 25.8682H152.377L142.404 66.0316L120.723 64.1936Z" fill="url(#paint19_linear_247_383)" fill-opacity="0.6"/>
<path d="M59.933 165.079L74.3986 129L100.437 140.836L59.933 165.079Z" fill="url(#paint20_linear_247_383)"/>
<path d="M24.5822 106.386L280.538 221.838L276.318 175.787L20.702 56.9303L24.5822 106.386Z" fill="url(#paint21_linear_247_383)" fill-opacity="0.4"/>
<path d="M7.99298 88.2831L263.949 203.736L259.729 168.542L4.11279 49.6854L7.99298 88.2831Z" fill="url(#paint22_linear_247_383)" fill-opacity="0.3"/>
<g opacity="0.7">
<path d="M142.428 66.0223L120.706 64.0645L100.437 94.6155V140.836L122.111 139.526L142.387 113.863L142.428 66.0223Z" fill="url(#paint23_linear_247_383)"/>
<path d="M142.428 66.0223L120.706 64.0645L100.437 94.6155V140.836L122.111 139.526L142.387 113.863L142.428 66.0223Z" fill="url(#paint24_radial_247_383)"/>
<path d="M142.428 66.0223L120.706 64.0645L100.437 94.6155V140.836L122.111 139.526L142.387 113.863L142.428 66.0223Z" fill="url(#paint25_linear_247_383)"/>
</g>
<defs>
<linearGradient id="paint0_linear_247_383" x1="41.4478" y1="33.9628" x2="234.776" y2="147.237" gradientUnits="userSpaceOnUse">
<stop stop-color="#9492ED" stop-opacity="0"/>
<stop offset="0.546875" stop-color="#7674EC"/>
<stop offset="1" stop-color="#817FDF" stop-opacity="0"/>
</linearGradient>
<linearGradient id="paint1_linear_247_383" x1="41.4561" y1="34.0314" x2="234.784" y2="147.306" gradientUnits="userSpaceOnUse">
<stop stop-color="#232183" stop-opacity="0"/>
<stop offset="0.546875" stop-color="#232183"/>
<stop offset="1" stop-color="#232183" stop-opacity="0"/>
</linearGradient>
<linearGradient id="paint2_linear_247_383" x1="74.3801" y1="92.5706" x2="101.096" y2="94.7967" gradientUnits="userSpaceOnUse">
<stop stop-color="#548DD1"/>
<stop offset="0.59375" stop-color="#E39DE5"/>
<stop offset="1" stop-color="white"/>
</linearGradient>
<linearGradient id="paint3_linear_247_383" x1="55.2664" y1="113.171" x2="114.001" y2="126.211" gradientUnits="userSpaceOnUse">
<stop offset="0.0340296" stop-color="#2B79ED" stop-opacity="0.8"/>
<stop offset="0.791667" stop-color="#FCA6EF" stop-opacity="0.8"/>
<stop offset="1" stop-color="white"/>
</linearGradient>
<radialGradient id="paint4_radial_247_383" cx="0" cy="0" r="1" gradientUnits="userSpaceOnUse" gradientTransform="translate(111.039 173.37) rotate(90) scale(53.6296 111.039)">
<stop offset="0.0729167" stop-color="white"/>
<stop offset="0.34375" stop-color="#A873FF" stop-opacity="0.8"/>
<stop offset="1" stop-color="#0E7DFF" stop-opacity="0"/>
</radialGradient>
<linearGradient id="paint5_linear_247_383" x1="74.3817" y1="79.9498" x2="67.6229" y2="149.995" gradientUnits="userSpaceOnUse">
<stop stop-color="#2295D6"/>
<stop offset="1" stop-color="#2249D6" stop-opacity="0.3"/>
</linearGradient>
<linearGradient id="paint6_linear_247_383" x1="96.4765" y1="32.9003" x2="116.475" y2="60.5806" gradientUnits="userSpaceOnUse">
<stop stop-color="#4B86FA" stop-opacity="0.8"/>
<stop offset="0.534769" stop-color="#FCA6EF" stop-opacity="0.8"/>
<stop offset="0.716558" stop-color="white"/>
</linearGradient>
<linearGradient id="paint7_linear_247_383" x1="117.829" y1="66.0839" x2="45.2857" y2="115.708" gradientUnits="userSpaceOnUse">
<stop stop-color="#324BCC"/>
<stop offset="1" stop-color="white" stop-opacity="0.8"/>
</linearGradient>
<radialGradient id="paint8_radial_247_383" cx="0" cy="0" r="1" gradientUnits="userSpaceOnUse" gradientTransform="translate(96.1045 148.215) rotate(-90) scale(57.3265 32.9826)">
<stop stop-color="#00F0FF"/>
<stop offset="1" stop-color="#00F0FF" stop-opacity="0"/>
</radialGradient>
<linearGradient id="paint9_linear_247_383" x1="74.3805" y1="120.65" x2="96.1046" y2="95.0542" gradientUnits="userSpaceOnUse">
<stop stop-color="white"/>
<stop offset="1" stop-color="white" stop-opacity="0"/>
</linearGradient>
<linearGradient id="paint10_linear_247_383" x1="86.8571" y1="64.5782" x2="108.736" y2="78.7352" gradientUnits="userSpaceOnUse">
<stop stop-color="#4078CB"/>
<stop offset="0.59375" stop-color="#E39DE5"/>
<stop offset="1" stop-color="white"/>
</linearGradient>
<linearGradient id="paint11_linear_247_383" x1="140.736" y1="115.725" x2="96.1155" y2="130.701" gradientUnits="userSpaceOnUse">
<stop stop-color="#4078CB"/>
<stop offset="1" stop-color="#E39DE5"/>
</linearGradient>
<linearGradient id="paint12_linear_247_383" x1="111.954" y1="56.213" x2="111.449" y2="63.9949" gradientUnits="userSpaceOnUse">
<stop stop-color="#4078CB"/>
<stop offset="0.59375" stop-color="#E39DE5"/>
<stop offset="1" stop-color="white"/>
</linearGradient>
<linearGradient id="paint13_linear_247_383" x1="91.6336" y1="129.732" x2="91.1289" y2="137.514" gradientUnits="userSpaceOnUse">
<stop stop-color="#4078CB"/>
<stop offset="0.59375" stop-color="#E39DE5"/>
<stop offset="1" stop-color="white"/>
</linearGradient>
<linearGradient id="paint14_linear_247_383" x1="73.8675" y1="56.3686" x2="103.574" y2="86.9049" gradientUnits="userSpaceOnUse">
<stop offset="0.0729167" stop-color="#4B86FA" stop-opacity="0.8"/>
<stop offset="0.791667" stop-color="#FCA6EF" stop-opacity="0.8"/>
<stop offset="1" stop-color="white"/>
</linearGradient>
<linearGradient id="paint15_linear_247_383" x1="154.351" y1="25.8003" x2="177.397" y2="36.0728" gradientUnits="userSpaceOnUse">
<stop offset="0.00889157" stop-color="#1D2A9B" stop-opacity="0.8"/>
<stop offset="0.645598" stop-color="#FCA6EF" stop-opacity="0.8"/>
<stop offset="1" stop-color="white"/>
</linearGradient>
<linearGradient id="paint16_linear_247_383" x1="59.8651" y1="160.677" x2="126.706" y2="150.543" gradientUnits="userSpaceOnUse">
<stop offset="0.0340296" stop-color="#4B5CFA" stop-opacity="0.8"/>
<stop offset="0.791667" stop-color="#FCA6EF" stop-opacity="0.8"/>
<stop offset="1" stop-color="white"/>
</linearGradient>
<linearGradient id="paint17_linear_247_383" x1="144.548" y1="134.241" x2="130.194" y2="126.612" gradientUnits="userSpaceOnUse">
<stop offset="0.0340296" stop-color="#4B5CFA" stop-opacity="0.8"/>
<stop offset="0.539474" stop-color="#FCA6EF" stop-opacity="0.8"/>
<stop offset="1" stop-color="white"/>
</linearGradient>
<linearGradient id="paint18_linear_247_383" x1="150.822" y1="39.4039" x2="129.068" y2="70.6049" gradientUnits="userSpaceOnUse">
<stop stop-color="#0A3892"/>
<stop offset="0.536458" stop-color="#29B2ED" stop-opacity="0.8"/>
<stop offset="0.967948" stop-color="white"/>
</linearGradient>
<linearGradient id="paint19_linear_247_383" x1="141.825" y1="68.0738" x2="124.671" y2="37.5769" gradientUnits="userSpaceOnUse">
<stop stop-color="#FF439D"/>
<stop offset="1" stop-color="#FF43D6" stop-opacity="0"/>
</linearGradient>
<linearGradient id="paint20_linear_247_383" x1="71.5736" y1="127.162" x2="100.471" y2="147.039" gradientUnits="userSpaceOnUse">
<stop stop-color="#5BE2FF"/>
<stop offset="1" stop-color="#FF93E1" stop-opacity="0.6"/>
</linearGradient>
<linearGradient id="paint21_linear_247_383" x1="58.037" y1="41.2675" x2="251.365" y2="154.542" gradientUnits="userSpaceOnUse">
<stop stop-color="#232183" stop-opacity="0"/>
<stop offset="0.546875" stop-color="#232183"/>
<stop offset="1" stop-color="#232183" stop-opacity="0"/>
</linearGradient>
<linearGradient id="paint22_linear_247_383" x1="41.4478" y1="34.0227" x2="234.776" y2="147.297" gradientUnits="userSpaceOnUse">
<stop stop-color="#232183" stop-opacity="0"/>
<stop offset="0.546875" stop-color="#8A88EC"/>
<stop offset="1" stop-color="#232183" stop-opacity="0"/>
</linearGradient>
<linearGradient id="paint23_linear_247_383" x1="143.786" y1="75.4056" x2="71.3134" y2="124.88" gradientUnits="userSpaceOnUse">
<stop stop-color="#324BCC"/>
<stop offset="1" stop-color="white" stop-opacity="0.8"/>
</linearGradient>
<radialGradient id="paint24_radial_247_383" cx="0" cy="0" r="1" gradientUnits="userSpaceOnUse" gradientTransform="translate(122.111 157.519) rotate(-90) scale(57.3138 32.9074)">
<stop stop-color="#00F0FF"/>
<stop offset="1" stop-color="#00F0FF" stop-opacity="0"/>
</radialGradient>
<linearGradient id="paint25_linear_247_383" x1="107.324" y1="131.503" x2="125.301" y2="108.399" gradientUnits="userSpaceOnUse">
<stop stop-color="white"/>
<stop offset="1" stop-color="white" stop-opacity="0"/>
</linearGradient>
</defs>
</svg>
