<svg width="315" height="59" viewBox="0 0 315 59" fill="none" xmlns="http://www.w3.org/2000/svg">
<path d="M37.232 58.0641L29.424 49.6161C27.504 50.1707 25.392 50.4481 23.088 50.4481C18.9493 50.4481 15.1307 49.4881 11.632 47.5681C8.176 45.6054 5.424 42.8961 3.376 39.4401C1.37067 35.9414 0.368 32.0161 0.368 27.6641C0.368 23.3121 1.37067 19.4081 3.376 15.9521C5.424 12.4961 8.176 9.80806 11.632 7.88806C15.1307 5.92539 18.9493 4.94406 23.088 4.94406C27.2693 4.94406 31.088 5.92539 34.544 7.88806C38.0427 9.80806 40.7947 12.4961 42.8 15.9521C44.8053 19.4081 45.808 23.3121 45.808 27.6641C45.808 31.7601 44.912 35.4721 43.12 38.8001C41.3707 42.0854 38.9387 44.7307 35.824 46.7361L46.512 58.0641H37.232ZM7.856 27.6641C7.856 30.9494 8.496 33.8507 9.776 36.3681C11.0987 38.8427 12.912 40.7627 15.216 42.1281C17.52 43.4507 20.144 44.1121 23.088 44.1121C26.032 44.1121 28.656 43.4507 30.96 42.1281C33.264 40.7627 35.056 38.8427 36.336 36.3681C37.6587 33.8507 38.32 30.9494 38.32 27.6641C38.32 24.3787 37.6587 21.4987 36.336 19.0241C35.056 16.5494 33.264 14.6507 30.96 13.3281C28.656 12.0054 26.032 11.3441 23.088 11.3441C20.144 11.3441 17.52 12.0054 15.216 13.3281C12.912 14.6507 11.0987 16.5494 9.776 19.0241C8.496 21.4987 7.856 24.3787 7.856 27.6641ZM79.351 5.52006V11.4721H60.471V24.5921H75.191V30.5441H60.471V50.0001H53.175V5.52006H79.351ZM89.8245 10.0641C88.5018 10.0641 87.3925 9.61606 86.4965 8.72006C85.6005 7.82406 85.1525 6.71473 85.1525 5.39206C85.1525 4.06939 85.6005 2.96006 86.4965 2.06406C87.3925 1.16806 88.5018 0.720058 89.8245 0.720058C91.1045 0.720058 92.1925 1.16806 93.0885 2.06406C93.9845 2.96006 94.4325 4.06939 94.4325 5.39206C94.4325 6.71473 93.9845 7.82406 93.0885 8.72006C92.1925 9.61606 91.1045 10.0641 89.8245 10.0641ZM93.4085 14.7361V50.0001H86.1125V14.7361H93.4085ZM120.78 14.1601C123.553 14.1601 126.028 14.7361 128.204 15.8881C130.422 17.0401 132.15 18.7467 133.388 21.0081C134.625 23.2694 135.244 26.0001 135.244 29.2001V50.0001H128.012V30.2881C128.012 27.1307 127.222 24.7201 125.644 23.0561C124.065 21.3494 121.91 20.4961 119.18 20.4961C116.449 20.4961 114.273 21.3494 112.652 23.0561C111.073 24.7201 110.284 27.1307 110.284 30.2881V50.0001H102.988V14.7361H110.284V18.7681C111.478 17.3174 112.993 16.1867 114.828 15.3761C116.705 14.5654 118.689 14.1601 120.78 14.1601ZM142.118 32.2081C142.118 28.6667 142.843 25.5307 144.294 22.8001C145.787 20.0694 147.793 17.9574 150.31 16.4641C152.87 14.9281 155.686 14.1601 158.758 14.1601C161.531 14.1601 163.942 14.7147 165.99 15.8241C168.081 16.8907 169.745 18.2347 170.982 19.8561V14.7361H178.342V50.0001H170.982V44.7521C169.745 46.4161 168.059 47.8027 165.926 48.9121C163.793 50.0214 161.361 50.5761 158.63 50.5761C155.601 50.5761 152.827 49.8081 150.31 48.2721C147.793 46.6934 145.787 44.5174 144.294 41.7441C142.843 38.9281 142.118 35.7494 142.118 32.2081ZM170.982 32.3361C170.982 29.9041 170.47 27.7921 169.446 26.0001C168.465 24.2081 167.163 22.8427 165.542 21.9041C163.921 20.9654 162.171 20.4961 160.294 20.4961C158.417 20.4961 156.667 20.9654 155.046 21.9041C153.425 22.8001 152.102 24.1441 151.078 25.9361C150.097 27.6854 149.606 29.7761 149.606 32.2081C149.606 34.6401 150.097 36.7734 151.078 38.6081C152.102 40.4427 153.425 41.8507 155.046 42.8321C156.71 43.7707 158.459 44.2401 160.294 44.2401C162.171 44.2401 163.921 43.7707 165.542 42.8321C167.163 41.8934 168.465 40.5281 169.446 38.7361C170.47 36.9014 170.982 34.7681 170.982 32.3361ZM205.717 14.1601C208.49 14.1601 210.965 14.7361 213.141 15.8881C215.36 17.0401 217.088 18.7467 218.325 21.0081C219.562 23.2694 220.181 26.0001 220.181 29.2001V50.0001H212.949V30.2881C212.949 27.1307 212.16 24.7201 210.581 23.0561C209.002 21.3494 206.848 20.4961 204.117 20.4961C201.386 20.4961 199.21 21.3494 197.589 23.0561C196.01 24.7201 195.221 27.1307 195.221 30.2881V50.0001H187.925V14.7361H195.221V18.7681C196.416 17.3174 197.93 16.1867 199.765 15.3761C201.642 14.5654 203.626 14.1601 205.717 14.1601ZM227.056 32.3361C227.056 28.7094 227.781 25.5307 229.232 22.8001C230.725 20.0267 232.773 17.8934 235.376 16.4001C237.978 14.9067 240.965 14.1601 244.336 14.1601C248.602 14.1601 252.122 15.1841 254.896 17.2321C257.712 19.2374 259.61 22.1174 260.592 25.8721H252.72C252.08 24.1227 251.056 22.7574 249.648 21.7761C248.24 20.7947 246.469 20.3041 244.336 20.3041C241.349 20.3041 238.96 21.3707 237.168 23.5041C235.418 25.5947 234.544 28.5387 234.544 32.3361C234.544 36.1334 235.418 39.0987 237.168 41.2321C238.96 43.3654 241.349 44.4321 244.336 44.4321C248.56 44.4321 251.354 42.5761 252.72 38.8641H260.592C259.568 42.4481 257.648 45.3067 254.832 47.4401C252.016 49.5307 248.517 50.5761 244.336 50.5761C240.965 50.5761 237.978 49.8294 235.376 48.3361C232.773 46.8001 230.725 44.6667 229.232 41.9361C227.781 39.1627 227.056 35.9627 227.056 32.3361ZM300.183 31.5041C300.183 32.8267 300.097 34.0214 299.927 35.0881H272.983C273.196 37.9041 274.241 40.1654 276.119 41.8721C277.996 43.5787 280.3 44.4321 283.031 44.4321C286.956 44.4321 289.729 42.7894 291.351 39.5041H299.222C298.156 42.7467 296.215 45.4134 293.399 47.5041C290.625 49.5521 287.169 50.5761 283.031 50.5761C279.66 50.5761 276.631 49.8294 273.943 48.3361C271.297 46.8001 269.207 44.6667 267.671 41.9361C266.177 39.1627 265.431 35.9627 265.431 32.3361C265.431 28.7094 266.156 25.5307 267.607 22.8001C269.1 20.0267 271.169 17.8934 273.815 16.4001C276.503 14.9067 279.575 14.1601 283.031 14.1601C286.359 14.1601 289.324 14.8854 291.927 16.3361C294.529 17.7867 296.556 19.8347 298.007 22.4801C299.457 25.0827 300.183 28.0907 300.183 31.5041ZM292.567 29.2001C292.524 26.5121 291.564 24.3574 289.687 22.7361C287.809 21.1147 285.484 20.3041 282.711 20.3041C280.193 20.3041 278.039 21.1147 276.247 22.7361C274.455 24.3147 273.388 26.4694 273.047 29.2001H292.567ZM310.307 50.4481C308.984 50.4481 307.875 50.0001 306.979 49.1041C306.083 48.2081 305.635 47.0987 305.635 45.7761C305.635 44.4534 306.083 43.3441 306.979 42.4481C307.875 41.5521 308.984 41.1041 310.307 41.1041C311.587 41.1041 312.675 41.5521 313.571 42.4481C314.467 43.3441 314.915 44.4534 314.915 45.7761C314.915 47.0987 314.467 48.2081 313.571 49.1041C312.675 50.0001 311.587 50.4481 310.307 50.4481Z" fill="white"/>
</svg>
